<svg xmlns="http://www.w3.org/2000/svg" width="70" height="70" viewBox="0 0 70 70"><defs><style>.a{fill:#e0edff;}.b{fill:#d1e4ff;}.c{fill:#639aff;}.d{fill:#ffc431;}.e{fill:#bdd1f2;}.f{fill:#ffb401;}.g{fill:#548aff;}.h{fill:#b2c6eb;}.i{fill:#ffe28f;}.j{fill:#ffa100;}</style></defs><g transform="translate(-24 -24)"><path class="a" d="M94,72v60.345a2.414,2.414,0,0,1-2.414,2.414H26.414A2.414,2.414,0,0,1,24,132.345V72Z" transform="translate(0 -40.759)"/><path class="b" d="M24,31.241V27.621A3.621,3.621,0,0,1,27.621,24H90.379A3.621,3.621,0,0,1,94,27.621v3.621Z" transform="translate(0 0)"/><path class="c" d="M328,134.759V72h24.138v60.345a2.414,2.414,0,0,1-2.414,2.414Z" transform="translate(-258.138 -40.759)"/><path class="d" d="M369.655,153.655h4.828V144h-9.655v4.828H360v9.655h9.655Z" transform="translate(-285.31 -101.897)"/><path class="e" d="M192,24h2.414v7.241H192Z" transform="translate(-142.655 0)"/><path class="e" d="M264,24h2.414v7.241H264Z" transform="translate(-203.793 0)"/><path class="e" d="M336,24h2.414v7.241H336Z" transform="translate(-264.931 0)"/><path class="e" d="M408,24h2.414v7.241H408Z" transform="translate(-326.069 0)"/><path class="e" d="M224,40h3.621v2.414H224Z" transform="translate(-169.828 -13.586)"/><path class="e" d="M296,40h3.621v2.414H296Z" transform="translate(-230.966 -13.586)"/><path class="e" d="M368,40h3.621v2.414H368Z" transform="translate(-292.103 -13.586)"/><path class="e" d="M440,40h3.621v2.414H440Z" transform="translate(-353.241 -13.586)"/><path class="f" d="M374.483,150.034v-2.414h-3.621V144h-2.414v3.621h-3.621v1.207h-1.207v3.621H360v2.414h3.621v3.621h2.414v-3.621h3.621v-2.414h-3.621v-2.414Z" transform="translate(-285.31 -101.897)"/><path class="g" d="M360,144h2.414v2.414H360Z" transform="translate(-285.31 -101.897)"/><path class="g" d="M440,224h2.414v2.414H440Z" transform="translate(-353.241 -169.828)"/><g transform="translate(27.621 36.069)"><path class="e" d="M48,104h3.621v2.414H48Z" transform="translate(-48 -104)"/><path class="e" d="M48,144h3.621v2.414H48Z" transform="translate(-48 -137.966)"/><path class="e" d="M48,184h3.621v2.414H48Z" transform="translate(-48 -171.931)"/><path class="e" d="M48,224h3.621v2.414H48Z" transform="translate(-48 -205.897)"/><path class="e" d="M48,264h3.621v2.414H48Z" transform="translate(-48 -239.862)"/><path class="e" d="M48,304h3.621v2.414H48Z" transform="translate(-48 -273.828)"/><path class="e" d="M48,344h3.621v2.414H48Z" transform="translate(-48 -307.793)"/><path class="e" d="M48,384h3.621v2.414H48Z" transform="translate(-48 -341.759)"/><path class="e" d="M48,424h3.621v2.414H48Z" transform="translate(-48 -375.724)"/><path class="e" d="M124.207,304H92.828a2.414,2.414,0,0,0-2.414,2.414v4.828L88,313.655l2.414,2.414V320.9a2.414,2.414,0,0,0,2.414,2.414h31.379Z" transform="translate(-81.966 -273.828)"/></g><path class="b" d="M104,440.448v-6.035A2.414,2.414,0,0,1,106.414,432h31.379v8.448Z" transform="translate(-67.931 -346.448)"/><path class="e" d="M137.793,80.448H106.414A2.414,2.414,0,0,1,104,78.034V72h33.793Z" transform="translate(-67.931 -40.759)"/><path class="d" d="M124.207,128H92.828a2.414,2.414,0,0,0-2.414,2.414v8.448L88,141.276l2.414,2.414v8.448a2.414,2.414,0,0,0,2.414,2.414h31.379Z" transform="translate(-54.345 -88.31)"/><path class="f" d="M128,192h4.828v2.414H128Z" transform="translate(-88.31 -142.655)"/><path class="f" d="M176,192h9.655v2.414H176Z" transform="translate(-129.069 -142.655)"/><path class="f" d="M128,224h10.862v2.414H128Z" transform="translate(-88.31 -169.828)"/><path class="f" d="M128,256h4.828v2.414H128Z" transform="translate(-88.31 -197)"/><path class="f" d="M176,256h6.034v2.414H176Z" transform="translate(-129.069 -197)"/><path class="f" d="M104,152h33.793v2.414H104Z" transform="translate(-67.931 -108.69)"/><path class="h" d="M128,360h4.828v2.414H128Z" transform="translate(-88.31 -285.31)"/><path class="h" d="M176,360h9.655v2.414H176Z" transform="translate(-129.069 -285.31)"/><path class="h" d="M128,392h10.862v2.414H128Z" transform="translate(-88.31 -312.483)"/><path class="h" d="M104,328h33.793v2.414H104Z" transform="translate(-67.931 -258.138)"/><path class="g" d="M328,104h24.138v2.414H328Z" transform="translate(-258.138 -67.931)"/><path class="g" d="M328,264h24.138v2.414H328Z" transform="translate(-258.138 -203.793)"/><circle class="i" cx="7.241" cy="7.241" r="7.241" transform="translate(74.69 69.862)"/><path class="d" d="M360.448,336.9a8.448,8.448,0,1,1,8.448-8.448A8.448,8.448,0,0,1,360.448,336.9Zm0-14.483a6.034,6.034,0,1,0,6.034,6.034,6.034,6.034,0,0,0-6.034-6.034Z" transform="translate(-278.517 -251.345)"/><path class="j" d="M401.207,358.034A1.207,1.207,0,0,1,400,356.828V352h2.414v2.573l1.744-1.163,1.339,2.008-3.621,2.414A1.207,1.207,0,0,1,401.207,358.034Z" transform="translate(-319.276 -278.517)"/></g></svg>