<svg xmlns="http://www.w3.org/2000/svg" width="59.063" height="70" viewBox="0 0 59.063 70"><defs><style>.a{fill:#6a56a8;}.b{fill:#e57d37;}.c{fill:#edecf1;}.d{fill:#dbd9e2;}.e{fill:#7366aa;}.f{fill:#f09c48;}.g{fill:#edbc53;}.h{fill:#c8c6d4;}</style></defs><g transform="translate(-40)"><path class="a" d="M88.125,0H41.094A1.094,1.094,0,0,0,40,1.094v61.25a1.094,1.094,0,0,0,1.094,1.094H88.125Z"/><path class="b" d="M157.188,62.344,120,70V8.75L157.188,0Z" transform="translate(-69.063)"/><path class="c" d="M167.031,64H120v61.25h47.031a1.094,1.094,0,0,0,1.094-1.094V65.094A1.094,1.094,0,0,0,167.031,64Z" transform="translate(-69.063 -55.25)"/><rect class="d" width="2.188" height="61.25" transform="translate(50.938 8.75)"/><path class="a" d="M207.719,120H177.094A1.094,1.094,0,0,0,176,121.094v14.219a1.094,1.094,0,0,0,1.094,1.094h30.625a1.094,1.094,0,0,0,1.094-1.094V121.094A1.094,1.094,0,0,0,207.719,120Z" transform="translate(-117.406 -103.594)"/><rect class="e" width="30.625" height="14.219" transform="translate(59.688 17.5)"/><path class="f" d="M195.688,264H177.094A1.094,1.094,0,0,0,176,265.094v24.063a1.094,1.094,0,0,0,1.094,1.094h18.594a1.094,1.094,0,0,0,1.094-1.094V265.094A1.094,1.094,0,0,0,195.688,264Z" transform="translate(-117.406 -227.906)"/><rect class="g" width="18.594" height="24.063" transform="translate(59.688 37.188)"/><g transform="translate(81.563 39.375)"><path class="h" d="M352.75,290.188h-7.656a1.094,1.094,0,0,1,0-2.187h7.656a1.094,1.094,0,0,1,0,2.188Z" transform="translate(-344 -288)"/><path class="h" d="M352.75,322.188h-7.656a1.094,1.094,0,0,1,0-2.187h7.656a1.094,1.094,0,0,1,0,2.188Z" transform="translate(-344 -315.625)"/><path class="h" d="M352.75,354.188h-7.656a1.094,1.094,0,0,1,0-2.187h7.656a1.094,1.094,0,0,1,0,2.188Z" transform="translate(-344 -343.25)"/><path class="h" d="M352.75,386.187h-7.656a1.094,1.094,0,0,1,0-2.187h7.656a1.094,1.094,0,0,1,0,2.188Z" transform="translate(-344 -370.875)"/><path class="h" d="M352.75,418.187h-7.656a1.094,1.094,0,0,1,0-2.187h7.656a1.094,1.094,0,0,1,0,2.188Z" transform="translate(-344 -398.5)"/></g></g></svg>